<svg xmlns="http://www.w3.org/2000/svg" viewBox="0 0 88.17 59.89"><defs><style>.cls-1{fill:#fff;}</style></defs><title>Asset 1</title><g id="Layer_2" data-name="Layer 2"><g id="Layer_1-2" data-name="Layer 1"><path class="cls-1" d="M53.2,5.73a8.46,8.46,0,1,0,8.46,8.46A8.47,8.47,0,0,0,53.2,5.73Zm7,8.46a7,7,0,1,1-7-7A7,7,0,0,1,60.22,14.19Z"/><path class="cls-1" d="M60.71,35.09H55.48a.48.48,0,0,0-.48.48v4.26a.48.48,0,0,0,.28.43l2.61,1.22a.49.49,0,0,0,.2,0,.48.48,0,0,0,.2,0l2.61-1.18a.47.47,0,0,0,.28-.43V35.57A.47.47,0,0,0,60.71,35.09Zm-4.74,1h4.27v3.52l-2.13,1-2.14-1Z"/><path class="cls-1" d="M73.64,15.5a21.93,21.93,0,0,0-41.9-.09A14.62,14.62,0,0,0,12.61,25.84,13.35,13.35,0,0,0,0,36.29.91.91,0,0,0,.91,37.4H35.32c0,1.54,0,3,.07,4.29,0,.62,0,1.19.06,1.71.1,5.53,2,7.5,6,10.38v2.48a.71.71,0,0,0,.12.39c.2.31,2.22,3,12,3.23h1c8.71,0,10.3-3,10.46-3.34a.74.74,0,0,0,.06-.29v-2c4.29-3.06,5.93-4.87,6-10.88,0-.54,0-1.15.07-1.8.06-1.25.12-2.69.08-4.2H87a.91.91,0,0,0,.9-.76A18.32,18.32,0,0,0,73.64,15.5ZM86.21,35.58H71.13c-.26-3-1.06-6.15-3.24-8.43s-5.38-3.39-9.59-3.39H48.36c-4.22,0-7.47,1.15-9.63,3.41s-3,5.38-3.29,8.41H2.11a11.56,11.56,0,0,1,11.08-7.93h.15a.87.87,0,0,0,.92-.75,12.77,12.77,0,0,1,17.41-9.57,10.21,10.21,0,0,1,4.23,3.74.68.68,0,0,0,.7.32.66.66,0,0,0,.23-.09.68.68,0,0,0,.24-.93,11,11,0,0,0-3.78-3.71,20.09,20.09,0,0,1,38.49-1,10.26,10.26,0,0,0-4.19.88.68.68,0,0,0,.52,1.26,10.65,10.65,0,0,1,5.16-.51A16.59,16.59,0,0,1,86.35,33.51,15.67,15.67,0,0,1,86.21,35.58Zm-16.5,6c0,.67-.06,1.29-.07,1.84-.08,5-1.23,6.64-4.6,9.13V36.2a.72.72,0,0,0-1.43,0V56.05c-.38.5-2.4,2.59-10,2.39S43.42,56.47,42.9,56V36.54a.72.72,0,1,0-1.43,0V52c-3.16-2.38-4.5-4.11-4.58-8.62,0-.52,0-1.11-.06-1.74-.17-4-.42-10,2.93-13.47,1.89-2,4.78-3,8.6-3H58.3c3.81,0,6.68,1,8.55,2.95C70.16,31.61,69.89,37.58,69.71,41.53Z"/></g></g></svg>