<?xml version="1.0" encoding="utf-8"?>
<!-- Generator: Adobe Illustrator 20.1.0, SVG Export Plug-In . SVG Version: 6.00 Build 0)  -->
<svg version="1.1" id="Layer_1" xmlns="http://www.w3.org/2000/svg" xmlns:xlink="http://www.w3.org/1999/xlink" x="0px" y="0px"
	 viewBox="0 0 89 60" style="enable-background:new 0 0 89 60;" xml:space="preserve">
<style type="text/css">
	.st0{fill:#FFFFFF;}
</style>
<path class="st0" d="M25.87,50.13c-0.24,0-0.49-0.09-0.67-0.28L5.92,30.57c-0.18-0.18-0.28-0.42-0.28-0.67s0.1-0.49,0.28-0.67
	L25.17,9.98c0.37-0.37,0.97-0.37,1.34,0s0.37,0.97,0,1.34L7.93,29.9l18.61,18.61c0.37,0.37,0.37,0.97,0,1.34
	C26.36,50.04,26.12,50.13,25.87,50.13z"/>
<path class="st0" d="M60.26,50.13c-0.24,0-0.49-0.09-0.67-0.28c-0.37-0.37-0.37-0.97,0-1.34l18.58-18.58L59.55,11.32
	c-0.37-0.37-0.37-0.97,0-1.34s0.97-0.37,1.34,0l19.28,19.28c0.37,0.37,0.37,0.97,0,1.34L60.93,49.86
	C60.75,50.04,60.5,50.13,60.26,50.13z"/>
<path class="st0" d="M35.01,57.95c-0.09,0-0.18-0.01-0.27-0.04c-0.5-0.15-0.79-0.68-0.64-1.18l15.93-54
	c0.15-0.5,0.67-0.79,1.18-0.64c0.5,0.15,0.79,0.68,0.64,1.18l-15.93,54C35.8,57.68,35.42,57.95,35.01,57.95z"/>
</svg>
